<svg width="832" height="308" viewBox="0 0 832 308" fill="none" xmlns="http://www.w3.org/2000/svg">
<path d="M126.351 198.818C126.351 242.003 103.186 263.587 56.8734 263.587C34.7665 263.587 16.4544 259.387 1.89455 250.997C1.52676 250.785 1.3243 250.373 1.37522 249.952L5.94675 212.133C6.04032 211.359 6.90642 210.942 7.57835 211.339C21.2673 219.412 37.3829 223.433 55.9093 223.433C73.7939 223.433 82.7273 216.635 82.7273 203.02C82.7273 197.205 79.8792 192.41 74.1654 188.607C68.4515 184.857 61.5701 181.604 53.4769 178.901C45.4102 176.215 37.3171 172.971 29.2327 169.195C21.1661 165.41 14.267 159.365 8.55313 151.059C2.8481 142.745 0 132.33 0 119.805C0 101.9 5.8731 87.4871 17.6104 76.5578C29.3566 65.664 46.4274 60.2127 68.823 60.2127C86.2184 60.2127 102.679 63.4623 118.196 69.9362C118.623 70.1146 118.884 70.5503 118.843 71.0115L115.487 108.618C115.423 109.34 114.672 109.79 114 109.514C100.157 103.839 85.0956 101.005 68.823 101.005C52.8843 101.005 44.9149 106.624 44.9149 117.846C44.9149 123.244 47.7276 127.721 53.3177 131.275C58.9165 134.856 65.7095 137.914 73.6789 140.511C81.6394 143.117 89.6087 146.299 97.5958 150.058C105.565 153.843 112.349 159.843 117.948 168.034C123.547 176.277 126.351 186.515 126.351 198.818Z" fill="white"/>
<path d="M237.354 64.0338C237.442 63.5213 237.886 63.1467 238.407 63.1467H286.378C286.893 63.1467 287.336 63.5147 287.429 64.0215L310.875 191.709L314.992 217.143C315.036 217.412 315.268 217.61 315.541 217.61C315.821 217.61 316.058 217.401 316.092 217.123L319.251 191.709L338.846 64.0524C338.926 63.5314 339.374 63.1467 339.901 63.1467H383.874C384.55 63.1467 385.056 63.7657 384.921 64.4273L345.288 258.85C345.187 259.347 344.749 259.705 344.242 259.705H288.163C287.641 259.705 287.196 259.328 287.109 258.814L267.225 140.538L263.744 114.807C263.707 114.527 263.467 114.318 263.184 114.318C262.904 114.318 262.666 114.523 262.625 114.801L258.822 140.538L238.613 258.817C238.525 259.33 238.08 259.705 237.56 259.705H181.494C180.991 259.705 180.557 259.354 180.45 258.863L138.263 64.4404C138.118 63.7752 138.625 63.1467 139.307 63.1467H184.262C184.786 63.1467 185.232 63.5259 185.316 64.0422L206.168 191.709L209.97 217.128C210.012 217.405 210.249 217.61 210.529 217.61C210.805 217.61 211.04 217.411 211.087 217.14L237.354 64.0338Z" fill="white"/>
<path d="M462.735 258.637C462.735 259.227 462.257 259.705 461.667 259.705H415.651C415.061 259.705 414.583 259.227 414.583 258.637V162.044V65.4503C414.583 64.8803 415.031 64.4109 415.601 64.384L461.617 62.2155C462.226 62.1868 462.735 62.6725 462.735 63.2818V258.637ZM465.327 21.3798C465.327 35.4114 456.482 42.414 438.827 42.414C429.549 42.414 422.765 40.8096 418.457 37.5654C414.141 34.33 411.991 28.923 411.991 21.3798C411.991 7.11775 420.916 8.26961e-06 438.827 8.26961e-06C456.482 -0.00886173 465.327 7.11775 465.327 21.3798Z" fill="white"/>
<path d="M611.039 159.968C611.039 137.515 608.563 122.358 603.618 114.478C598.665 106.589 590.351 102.644 578.737 102.644C565.046 102.644 555.178 107.854 549.159 118.274C549.066 118.434 549.018 118.617 549.018 118.801V205.681C549.018 205.86 549.063 206.037 549.15 206.194C555.164 217.025 564.699 222.476 577.764 222.476C588.971 222.476 597.312 218.142 602.787 209.508C608.315 200.901 611.039 184.37 611.039 159.968ZM659.501 161.262C659.501 195.166 653.424 220.526 641.254 237.359C629.083 254.2 612.012 262.621 590.05 262.621C573.003 262.621 559.519 257.862 549.667 248.37C549.463 248.174 549.167 248.104 548.898 248.192C548.581 248.296 548.369 248.596 548.378 248.93L549.018 274.596V306.901C549.018 307.491 548.54 307.969 547.95 307.969H502.562C501.972 307.969 501.494 307.491 501.494 306.901V65.4286C501.494 64.8675 501.928 64.4022 502.489 64.3636L533.783 62.2106C534.205 62.1816 534.604 62.4038 534.801 62.7773L542.539 77.4287C542.87 78.0548 543.708 78.191 544.23 77.7125C557.177 65.8479 572.854 59.9115 591.341 59.9115C614.17 59.9115 631.232 67.5167 642.563 82.7272C653.849 97.9555 659.501 124.131 659.501 161.262Z" fill="white"/>
<path d="M724.847 140.382C724.807 140.994 725.295 141.513 725.909 141.513H786.704C787.301 141.513 787.782 141.023 787.768 140.428C787.433 126.114 784.714 115.885 779.554 109.78C774.273 103.531 766.685 100.402 756.769 100.402C745.996 100.402 738.186 103.46 733.339 109.612C728.631 115.617 725.797 125.86 724.847 140.382ZM767.436 263.259C736.214 263.259 713.323 254.696 698.781 237.518C684.231 220.366 676.97 194.076 676.97 158.682C676.97 92.8321 703.478 59.9115 756.433 59.9115C806.213 59.9115 831.094 90.1198 831.094 150.581C831.094 159.611 830.686 167.174 829.93 173.277C829.864 173.808 829.411 174.203 828.876 174.203H726.889C726.279 174.203 725.792 174.717 725.828 175.326C726.799 192.015 730.927 203.784 738.186 210.643C745.633 217.672 757.318 221.173 773.256 221.173C788.967 221.173 804.384 218.305 819.492 212.601C820.14 212.356 820.85 212.776 820.941 213.462L825.827 250.501C825.888 250.958 825.649 251.402 825.232 251.599C808.79 259.381 789.528 263.259 767.436 263.259Z" fill="white"/>
<path d="M126.351 198.818C126.351 242.003 103.186 263.587 56.8734 263.587C34.7665 263.587 16.4544 259.387 1.89455 250.997C1.52676 250.785 1.3243 250.373 1.37522 249.952L5.94675 212.133C6.04032 211.359 6.90642 210.942 7.57835 211.339C21.2673 219.412 37.3829 223.433 55.9093 223.433C73.7939 223.433 82.7273 216.635 82.7273 203.02C82.7273 197.205 79.8792 192.41 74.1654 188.607C68.4515 184.857 61.5701 181.604 53.4769 178.901C45.4102 176.215 37.3171 172.971 29.2327 169.195C21.1661 165.41 14.267 159.365 8.55313 151.059C2.8481 142.745 0 132.33 0 119.805C0 101.9 5.8731 87.4871 17.6104 76.5578C29.3566 65.664 46.4274 60.2127 68.823 60.2127C86.2184 60.2127 102.679 63.4623 118.196 69.9362C118.623 70.1146 118.884 70.5503 118.843 71.0115L115.487 108.618C115.423 109.34 114.672 109.79 114 109.514C100.157 103.839 85.0956 101.005 68.823 101.005C52.8843 101.005 44.9149 106.624 44.9149 117.846C44.9149 123.244 47.7276 127.721 53.3177 131.275C58.9165 134.856 65.7095 137.914 73.6789 140.511C81.6394 143.117 89.6087 146.299 97.5958 150.058C105.565 153.843 112.349 159.843 117.948 168.034C123.547 176.277 126.351 186.515 126.351 198.818Z" fill="white"/>
<path d="M237.354 64.0338C237.442 63.5213 237.886 63.1467 238.407 63.1467H286.378C286.893 63.1467 287.336 63.5147 287.429 64.0215L310.875 191.709L314.992 217.143C315.036 217.412 315.268 217.61 315.541 217.61C315.821 217.61 316.058 217.401 316.092 217.123L319.251 191.709L338.846 64.0524C338.926 63.5314 339.374 63.1467 339.901 63.1467H383.874C384.55 63.1467 385.056 63.7657 384.921 64.4273L345.288 258.85C345.187 259.347 344.749 259.705 344.242 259.705H288.163C287.641 259.705 287.196 259.328 287.109 258.814L267.225 140.538L263.744 114.807C263.707 114.527 263.467 114.318 263.184 114.318C262.904 114.318 262.666 114.523 262.625 114.801L258.822 140.538L238.613 258.817C238.525 259.33 238.08 259.705 237.56 259.705H181.494C180.991 259.705 180.557 259.354 180.45 258.863L138.263 64.4404C138.118 63.7752 138.625 63.1467 139.307 63.1467H184.262C184.786 63.1467 185.232 63.5259 185.316 64.0422L206.168 191.709L209.97 217.128C210.012 217.405 210.249 217.61 210.529 217.61C210.805 217.61 211.04 217.411 211.087 217.14L237.354 64.0338Z" fill="white"/>
<path d="M462.735 258.637C462.735 259.227 462.257 259.705 461.667 259.705H415.651C415.061 259.705 414.583 259.227 414.583 258.637V162.044V65.4503C414.583 64.8803 415.031 64.4109 415.601 64.384L461.617 62.2155C462.226 62.1868 462.735 62.6725 462.735 63.2818V258.637ZM465.327 21.3798C465.327 35.4114 456.482 42.414 438.827 42.414C429.549 42.414 422.765 40.8096 418.457 37.5654C414.141 34.33 411.991 28.923 411.991 21.3798C411.991 7.11775 420.916 8.26961e-06 438.827 8.26961e-06C456.482 -0.00886173 465.327 7.11775 465.327 21.3798Z" fill="white"/>
<path d="M611.039 159.968C611.039 137.515 608.563 122.358 603.618 114.478C598.665 106.589 590.351 102.644 578.737 102.644C565.046 102.644 555.178 107.854 549.159 118.274C549.066 118.434 549.018 118.617 549.018 118.801V205.681C549.018 205.86 549.063 206.037 549.15 206.194C555.164 217.025 564.699 222.476 577.764 222.476C588.971 222.476 597.312 218.142 602.787 209.508C608.315 200.901 611.039 184.37 611.039 159.968ZM659.501 161.262C659.501 195.166 653.424 220.526 641.254 237.359C629.083 254.2 612.012 262.621 590.05 262.621C573.003 262.621 559.519 257.862 549.667 248.37C549.463 248.174 549.167 248.104 548.898 248.192C548.581 248.296 548.369 248.596 548.378 248.93L549.018 274.596V306.901C549.018 307.491 548.54 307.969 547.95 307.969H502.562C501.972 307.969 501.494 307.491 501.494 306.901V65.4286C501.494 64.8675 501.928 64.4022 502.489 64.3636L533.783 62.2106C534.205 62.1816 534.604 62.4038 534.801 62.7773L542.539 77.4287C542.87 78.0548 543.708 78.191 544.23 77.7125C557.177 65.8479 572.854 59.9115 591.341 59.9115C614.17 59.9115 631.232 67.5167 642.563 82.7272C653.849 97.9555 659.501 124.131 659.501 161.262Z" fill="white"/>
<path d="M724.847 140.382C724.807 140.994 725.295 141.513 725.909 141.513H786.704C787.301 141.513 787.782 141.023 787.768 140.428C787.433 126.114 784.714 115.885 779.554 109.78C774.273 103.531 766.685 100.402 756.769 100.402C745.996 100.402 738.186 103.46 733.339 109.612C728.631 115.617 725.797 125.86 724.847 140.382ZM767.436 263.259C736.214 263.259 713.323 254.696 698.781 237.518C684.231 220.366 676.97 194.076 676.97 158.682C676.97 92.8321 703.478 59.9115 756.433 59.9115C806.213 59.9115 831.094 90.1198 831.094 150.581C831.094 159.611 830.686 167.174 829.93 173.277C829.864 173.808 829.411 174.203 828.876 174.203H726.889C726.279 174.203 725.792 174.717 725.828 175.326C726.799 192.015 730.927 203.784 738.186 210.643C745.633 217.672 757.318 221.173 773.256 221.173C788.967 221.173 804.384 218.305 819.492 212.601C820.14 212.356 820.85 212.776 820.941 213.462L825.827 250.501C825.888 250.958 825.649 251.402 825.232 251.599C808.79 259.381 789.528 263.259 767.436 263.259Z" fill="white"/>
<path d="M126.351 198.818C126.351 242.003 103.186 263.587 56.8734 263.587C34.7665 263.587 16.4544 259.387 1.89455 250.997C1.52676 250.785 1.3243 250.373 1.37522 249.952L5.94675 212.133C6.04032 211.359 6.90642 210.942 7.57835 211.339C21.2673 219.412 37.3829 223.433 55.9093 223.433C73.7939 223.433 82.7273 216.635 82.7273 203.02C82.7273 197.205 79.8792 192.41 74.1654 188.607C68.4515 184.857 61.5701 181.604 53.4769 178.901C45.4102 176.215 37.3171 172.971 29.2327 169.195C21.1661 165.41 14.267 159.365 8.55313 151.059C2.8481 142.745 0 132.33 0 119.805C0 101.9 5.8731 87.4871 17.6104 76.5578C29.3566 65.664 46.4274 60.2127 68.823 60.2127C86.2184 60.2127 102.679 63.4623 118.196 69.9362C118.623 70.1146 118.884 70.5503 118.843 71.0115L115.487 108.618C115.423 109.34 114.672 109.79 114 109.514C100.157 103.839 85.0956 101.005 68.823 101.005C52.8843 101.005 44.9149 106.624 44.9149 117.846C44.9149 123.244 47.7276 127.721 53.3177 131.275C58.9165 134.856 65.7095 137.914 73.6789 140.511C81.6394 143.117 89.6087 146.299 97.5958 150.058C105.565 153.843 112.349 159.843 117.948 168.034C123.547 176.277 126.351 186.515 126.351 198.818Z" fill="white"/>
<path d="M237.354 64.0338C237.442 63.5213 237.886 63.1467 238.407 63.1467H286.378C286.893 63.1467 287.336 63.5147 287.429 64.0215L310.875 191.709L314.992 217.143C315.036 217.412 315.268 217.61 315.541 217.61C315.821 217.61 316.058 217.401 316.092 217.123L319.251 191.709L338.846 64.0524C338.926 63.5314 339.374 63.1467 339.901 63.1467H383.874C384.55 63.1467 385.056 63.7657 384.921 64.4273L345.288 258.85C345.187 259.347 344.749 259.705 344.242 259.705H288.163C287.641 259.705 287.196 259.328 287.109 258.814L267.225 140.538L263.744 114.807C263.707 114.527 263.467 114.318 263.184 114.318C262.904 114.318 262.666 114.523 262.625 114.801L258.822 140.538L238.613 258.817C238.525 259.33 238.08 259.705 237.56 259.705H181.494C180.991 259.705 180.557 259.354 180.45 258.863L138.263 64.4404C138.118 63.7752 138.625 63.1467 139.307 63.1467H184.262C184.786 63.1467 185.232 63.5259 185.316 64.0422L206.168 191.709L209.97 217.128C210.012 217.405 210.249 217.61 210.529 217.61C210.805 217.61 211.04 217.411 211.087 217.14L237.354 64.0338Z" fill="white"/>
<path d="M462.735 258.637C462.735 259.227 462.257 259.705 461.667 259.705H415.651C415.061 259.705 414.583 259.227 414.583 258.637V162.044V65.4503C414.583 64.8803 415.031 64.4109 415.601 64.384L461.617 62.2155C462.226 62.1868 462.735 62.6725 462.735 63.2818V258.637ZM465.327 21.3798C465.327 35.4114 456.482 42.414 438.827 42.414C429.549 42.414 422.765 40.8096 418.457 37.5654C414.141 34.33 411.991 28.923 411.991 21.3798C411.991 7.11775 420.916 8.26961e-06 438.827 8.26961e-06C456.482 -0.00886173 465.327 7.11775 465.327 21.3798Z" fill="white"/>
<path d="M611.039 159.968C611.039 137.515 608.563 122.358 603.618 114.478C598.665 106.589 590.351 102.644 578.737 102.644C565.046 102.644 555.178 107.854 549.159 118.274C549.066 118.434 549.018 118.617 549.018 118.801V205.681C549.018 205.86 549.063 206.037 549.15 206.194C555.164 217.025 564.699 222.476 577.764 222.476C588.971 222.476 597.312 218.142 602.787 209.508C608.315 200.901 611.039 184.37 611.039 159.968ZM659.501 161.262C659.501 195.166 653.424 220.526 641.254 237.359C629.083 254.2 612.012 262.621 590.05 262.621C573.003 262.621 559.519 257.862 549.667 248.37C549.463 248.174 549.167 248.104 548.898 248.192C548.581 248.296 548.369 248.596 548.378 248.93L549.018 274.596V306.901C549.018 307.491 548.54 307.969 547.95 307.969H502.562C501.972 307.969 501.494 307.491 501.494 306.901V65.4286C501.494 64.8675 501.928 64.4022 502.489 64.3636L533.783 62.2106C534.205 62.1816 534.604 62.4038 534.801 62.7773L542.539 77.4287C542.87 78.0548 543.708 78.191 544.23 77.7125C557.177 65.8479 572.854 59.9115 591.341 59.9115C614.17 59.9115 631.232 67.5167 642.563 82.7272C653.849 97.9555 659.501 124.131 659.501 161.262Z" fill="white"/>
<path d="M724.847 140.382C724.807 140.994 725.295 141.513 725.909 141.513H786.704C787.301 141.513 787.782 141.023 787.768 140.428C787.433 126.114 784.714 115.885 779.554 109.78C774.273 103.531 766.685 100.402 756.769 100.402C745.996 100.402 738.186 103.46 733.339 109.612C728.631 115.617 725.797 125.86 724.847 140.382ZM767.436 263.259C736.214 263.259 713.323 254.696 698.781 237.518C684.231 220.366 676.97 194.076 676.97 158.682C676.97 92.8321 703.478 59.9115 756.433 59.9115C806.213 59.9115 831.094 90.1198 831.094 150.581C831.094 159.611 830.686 167.174 829.93 173.277C829.864 173.808 829.411 174.203 828.876 174.203H726.889C726.279 174.203 725.792 174.717 725.828 175.326C726.799 192.015 730.927 203.784 738.186 210.643C745.633 217.672 757.318 221.173 773.256 221.173C788.967 221.173 804.384 218.305 819.492 212.601C820.14 212.356 820.85 212.776 820.941 213.462L825.827 250.501C825.888 250.958 825.649 251.402 825.232 251.599C808.79 259.381 789.528 263.259 767.436 263.259Z" fill="white"/>
<path d="M126.351 198.818C126.351 242.003 103.186 263.587 56.8734 263.587C34.7665 263.587 16.4544 259.387 1.89455 250.997C1.52676 250.785 1.3243 250.373 1.37522 249.952L5.94675 212.133C6.04032 211.359 6.90642 210.942 7.57835 211.339C21.2673 219.412 37.3829 223.433 55.9093 223.433C73.7939 223.433 82.7273 216.635 82.7273 203.02C82.7273 197.205 79.8792 192.41 74.1654 188.607C68.4515 184.857 61.5701 181.604 53.4769 178.901C45.4102 176.215 37.3171 172.971 29.2327 169.195C21.1661 165.41 14.267 159.365 8.55313 151.059C2.8481 142.745 0 132.33 0 119.805C0 101.9 5.8731 87.4871 17.6104 76.5578C29.3566 65.664 46.4274 60.2127 68.823 60.2127C86.2184 60.2127 102.679 63.4623 118.196 69.9362C118.623 70.1146 118.884 70.5503 118.843 71.0115L115.487 108.618C115.423 109.34 114.672 109.79 114 109.514C100.157 103.839 85.0956 101.005 68.823 101.005C52.8843 101.005 44.9149 106.624 44.9149 117.846C44.9149 123.244 47.7276 127.721 53.3177 131.275C58.9165 134.856 65.7095 137.914 73.6789 140.511C81.6394 143.117 89.6087 146.299 97.5958 150.058C105.565 153.843 112.349 159.843 117.948 168.034C123.547 176.277 126.351 186.515 126.351 198.818Z" fill="white"/>
<path d="M237.354 64.0338C237.442 63.5213 237.886 63.1467 238.407 63.1467H286.378C286.893 63.1467 287.336 63.5147 287.429 64.0215L310.875 191.709L314.992 217.143C315.036 217.412 315.268 217.61 315.541 217.61C315.821 217.61 316.058 217.401 316.092 217.123L319.251 191.709L338.846 64.0524C338.926 63.5314 339.374 63.1467 339.901 63.1467H383.874C384.55 63.1467 385.056 63.7657 384.921 64.4273L345.288 258.85C345.187 259.347 344.749 259.705 344.242 259.705H288.163C287.641 259.705 287.196 259.328 287.109 258.814L267.225 140.538L263.744 114.807C263.707 114.527 263.467 114.318 263.184 114.318C262.904 114.318 262.666 114.523 262.625 114.801L258.822 140.538L238.613 258.817C238.525 259.33 238.08 259.705 237.56 259.705H181.494C180.991 259.705 180.557 259.354 180.45 258.863L138.263 64.4404C138.118 63.7752 138.625 63.1467 139.307 63.1467H184.262C184.786 63.1467 185.232 63.5259 185.316 64.0422L206.168 191.709L209.97 217.128C210.012 217.405 210.249 217.61 210.529 217.61C210.805 217.61 211.04 217.411 211.087 217.14L237.354 64.0338Z" fill="white"/>
<path d="M462.735 258.637C462.735 259.227 462.257 259.705 461.667 259.705H415.651C415.061 259.705 414.583 259.227 414.583 258.637V162.044V65.4503C414.583 64.8803 415.031 64.4109 415.601 64.384L461.617 62.2155C462.226 62.1868 462.735 62.6725 462.735 63.2818V258.637ZM465.327 21.3798C465.327 35.4114 456.482 42.414 438.827 42.414C429.549 42.414 422.765 40.8096 418.457 37.5654C414.141 34.33 411.991 28.923 411.991 21.3798C411.991 7.11775 420.916 8.26961e-06 438.827 8.26961e-06C456.482 -0.00886173 465.327 7.11775 465.327 21.3798Z" fill="white"/>
<path d="M611.039 159.968C611.039 137.515 608.563 122.358 603.618 114.478C598.665 106.589 590.351 102.644 578.737 102.644C565.046 102.644 555.178 107.854 549.159 118.274C549.066 118.434 549.018 118.617 549.018 118.801V205.681C549.018 205.86 549.063 206.037 549.15 206.194C555.164 217.025 564.699 222.476 577.764 222.476C588.971 222.476 597.312 218.142 602.787 209.508C608.315 200.901 611.039 184.37 611.039 159.968ZM659.501 161.262C659.501 195.166 653.424 220.526 641.254 237.359C629.083 254.2 612.012 262.621 590.05 262.621C573.003 262.621 559.519 257.862 549.667 248.37C549.463 248.174 549.167 248.104 548.898 248.192C548.581 248.296 548.369 248.596 548.378 248.93L549.018 274.596V306.901C549.018 307.491 548.54 307.969 547.95 307.969H502.562C501.972 307.969 501.494 307.491 501.494 306.901V65.4286C501.494 64.8675 501.928 64.4022 502.489 64.3636L533.783 62.2106C534.205 62.1816 534.604 62.4038 534.801 62.7773L542.539 77.4287C542.87 78.0548 543.708 78.191 544.23 77.7125C557.177 65.8479 572.854 59.9115 591.341 59.9115C614.17 59.9115 631.232 67.5167 642.563 82.7272C653.849 97.9555 659.501 124.131 659.501 161.262Z" fill="white"/>
<path d="M724.847 140.382C724.807 140.994 725.295 141.513 725.909 141.513H786.704C787.301 141.513 787.782 141.023 787.768 140.428C787.433 126.114 784.714 115.885 779.554 109.78C774.273 103.531 766.685 100.402 756.769 100.402C745.996 100.402 738.186 103.46 733.339 109.612C728.631 115.617 725.797 125.86 724.847 140.382ZM767.436 263.259C736.214 263.259 713.323 254.696 698.781 237.518C684.231 220.366 676.97 194.076 676.97 158.682C676.97 92.8321 703.478 59.9115 756.433 59.9115C806.213 59.9115 831.094 90.1198 831.094 150.581C831.094 159.611 830.686 167.174 829.93 173.277C829.864 173.808 829.411 174.203 828.876 174.203H726.889C726.279 174.203 725.792 174.717 725.828 175.326C726.799 192.015 730.927 203.784 738.186 210.643C745.633 217.672 757.318 221.173 773.256 221.173C788.967 221.173 804.384 218.305 819.492 212.601C820.14 212.356 820.85 212.776 820.941 213.462L825.827 250.501C825.888 250.958 825.649 251.402 825.232 251.599C808.79 259.381 789.528 263.259 767.436 263.259Z" fill="white"/>
<path d="M126.351 198.818C126.351 242.003 103.186 263.587 56.8734 263.587C34.7665 263.587 16.4544 259.387 1.89455 250.997C1.52676 250.785 1.3243 250.373 1.37522 249.952L5.94675 212.133C6.04032 211.359 6.90642 210.942 7.57835 211.339C21.2673 219.412 37.3829 223.433 55.9093 223.433C73.7939 223.433 82.7273 216.635 82.7273 203.02C82.7273 197.205 79.8792 192.41 74.1654 188.607C68.4515 184.857 61.5701 181.604 53.4769 178.901C45.4102 176.215 37.3171 172.971 29.2327 169.195C21.1661 165.41 14.267 159.365 8.55313 151.059C2.8481 142.745 0 132.33 0 119.805C0 101.9 5.8731 87.4871 17.6104 76.5578C29.3566 65.664 46.4274 60.2127 68.823 60.2127C86.2184 60.2127 102.679 63.4623 118.196 69.9362C118.623 70.1146 118.884 70.5503 118.843 71.0115L115.487 108.618C115.423 109.34 114.672 109.79 114 109.514C100.157 103.839 85.0956 101.005 68.823 101.005C52.8843 101.005 44.9149 106.624 44.9149 117.846C44.9149 123.244 47.7276 127.721 53.3177 131.275C58.9165 134.856 65.7095 137.914 73.6789 140.511C81.6394 143.117 89.6087 146.299 97.5958 150.058C105.565 153.843 112.349 159.843 117.948 168.034C123.547 176.277 126.351 186.515 126.351 198.818Z" fill="white"/>
<path d="M237.354 64.0338C237.442 63.5213 237.886 63.1467 238.407 63.1467H286.378C286.893 63.1467 287.336 63.5147 287.429 64.0215L310.875 191.709L314.992 217.143C315.036 217.412 315.268 217.61 315.541 217.61C315.821 217.61 316.058 217.401 316.092 217.123L319.251 191.709L338.846 64.0524C338.926 63.5314 339.374 63.1467 339.901 63.1467H383.874C384.55 63.1467 385.056 63.7657 384.921 64.4273L345.288 258.85C345.187 259.347 344.749 259.705 344.242 259.705H288.163C287.641 259.705 287.196 259.328 287.109 258.814L267.225 140.538L263.744 114.807C263.707 114.527 263.467 114.318 263.184 114.318C262.904 114.318 262.666 114.523 262.625 114.801L258.822 140.538L238.613 258.817C238.525 259.33 238.08 259.705 237.56 259.705H181.494C180.991 259.705 180.557 259.354 180.45 258.863L138.263 64.4404C138.118 63.7752 138.625 63.1467 139.307 63.1467H184.262C184.786 63.1467 185.232 63.5259 185.316 64.0422L206.168 191.709L209.97 217.128C210.012 217.405 210.249 217.61 210.529 217.61C210.805 217.61 211.04 217.411 211.087 217.14L237.354 64.0338Z" fill="white"/>
<path d="M462.735 258.637C462.735 259.227 462.257 259.705 461.667 259.705H415.651C415.061 259.705 414.583 259.227 414.583 258.637V162.044V65.4503C414.583 64.8803 415.031 64.4109 415.601 64.384L461.617 62.2155C462.226 62.1868 462.735 62.6725 462.735 63.2818V258.637ZM465.327 21.3798C465.327 35.4114 456.482 42.414 438.827 42.414C429.549 42.414 422.765 40.8096 418.457 37.5654C414.141 34.33 411.991 28.923 411.991 21.3798C411.991 7.11775 420.916 8.26961e-06 438.827 8.26961e-06C456.482 -0.00886173 465.327 7.11775 465.327 21.3798Z" fill="white"/>
<path d="M611.039 159.968C611.039 137.515 608.563 122.358 603.618 114.478C598.665 106.589 590.351 102.644 578.737 102.644C565.046 102.644 555.178 107.854 549.159 118.274C549.066 118.434 549.018 118.617 549.018 118.801V205.681C549.018 205.86 549.063 206.037 549.15 206.194C555.164 217.025 564.699 222.476 577.764 222.476C588.971 222.476 597.312 218.142 602.787 209.508C608.315 200.901 611.039 184.37 611.039 159.968ZM659.501 161.262C659.501 195.166 653.424 220.526 641.254 237.359C629.083 254.2 612.012 262.621 590.05 262.621C573.003 262.621 559.519 257.862 549.667 248.37C549.463 248.174 549.167 248.104 548.898 248.192C548.581 248.296 548.369 248.596 548.378 248.93L549.018 274.596V306.901C549.018 307.491 548.54 307.969 547.95 307.969H502.562C501.972 307.969 501.494 307.491 501.494 306.901V65.4286C501.494 64.8675 501.928 64.4022 502.489 64.3636L533.783 62.2106C534.205 62.1816 534.604 62.4038 534.801 62.7773L542.539 77.4287C542.87 78.0548 543.708 78.191 544.23 77.7125C557.177 65.8479 572.854 59.9115 591.341 59.9115C614.17 59.9115 631.232 67.5167 642.563 82.7272C653.849 97.9555 659.501 124.131 659.501 161.262Z" fill="white"/>
<path d="M724.847 140.382C724.807 140.994 725.295 141.513 725.909 141.513H786.704C787.301 141.513 787.782 141.023 787.768 140.428C787.433 126.114 784.714 115.885 779.554 109.78C774.273 103.531 766.685 100.402 756.769 100.402C745.996 100.402 738.186 103.46 733.339 109.612C728.631 115.617 725.797 125.86 724.847 140.382ZM767.436 263.259C736.214 263.259 713.323 254.696 698.781 237.518C684.231 220.366 676.97 194.076 676.97 158.682C676.97 92.8321 703.478 59.9115 756.433 59.9115C806.213 59.9115 831.094 90.1198 831.094 150.581C831.094 159.611 830.686 167.174 829.93 173.277C829.864 173.808 829.411 174.203 828.876 174.203H726.889C726.279 174.203 725.792 174.717 725.828 175.326C726.799 192.015 730.927 203.784 738.186 210.643C745.633 217.672 757.318 221.173 773.256 221.173C788.967 221.173 804.384 218.305 819.492 212.601C820.14 212.356 820.85 212.776 820.941 213.462L825.827 250.501C825.888 250.958 825.649 251.402 825.232 251.599C808.79 259.381 789.528 263.259 767.436 263.259Z" fill="white"/>
<path d="M126.351 198.818C126.351 242.003 103.186 263.587 56.8734 263.587C34.7665 263.587 16.4544 259.387 1.89455 250.997C1.52676 250.785 1.3243 250.373 1.37522 249.952L5.94675 212.133C6.04032 211.359 6.90642 210.942 7.57835 211.339C21.2673 219.412 37.3829 223.433 55.9093 223.433C73.7939 223.433 82.7273 216.635 82.7273 203.02C82.7273 197.205 79.8792 192.41 74.1654 188.607C68.4515 184.857 61.5701 181.604 53.4769 178.901C45.4102 176.215 37.3171 172.971 29.2327 169.195C21.1661 165.41 14.267 159.365 8.55313 151.059C2.8481 142.745 0 132.33 0 119.805C0 101.9 5.8731 87.4871 17.6104 76.5578C29.3566 65.664 46.4274 60.2127 68.823 60.2127C86.2184 60.2127 102.679 63.4623 118.196 69.9362C118.623 70.1146 118.884 70.5503 118.843 71.0115L115.487 108.618C115.423 109.34 114.672 109.79 114 109.514C100.157 103.839 85.0956 101.005 68.823 101.005C52.8843 101.005 44.9149 106.624 44.9149 117.846C44.9149 123.244 47.7276 127.721 53.3177 131.275C58.9165 134.856 65.7095 137.914 73.6789 140.511C81.6394 143.117 89.6087 146.299 97.5958 150.058C105.565 153.843 112.349 159.843 117.948 168.034C123.547 176.277 126.351 186.515 126.351 198.818Z" fill="black"/>
<path d="M237.354 64.0338C237.442 63.5213 237.886 63.1467 238.407 63.1467H286.378C286.893 63.1467 287.336 63.5147 287.429 64.0215L310.875 191.709L314.992 217.143C315.036 217.412 315.268 217.61 315.541 217.61C315.821 217.61 316.058 217.401 316.092 217.123L319.251 191.709L338.846 64.0524C338.926 63.5314 339.374 63.1467 339.901 63.1467H383.874C384.55 63.1467 385.056 63.7657 384.921 64.4273L345.288 258.85C345.187 259.347 344.749 259.705 344.242 259.705H288.163C287.641 259.705 287.196 259.328 287.109 258.814L267.225 140.538L263.744 114.807C263.707 114.527 263.467 114.318 263.184 114.318C262.904 114.318 262.666 114.523 262.625 114.801L258.822 140.538L238.613 258.817C238.525 259.33 238.08 259.705 237.56 259.705H181.494C180.991 259.705 180.557 259.354 180.45 258.863L138.263 64.4404C138.118 63.7752 138.625 63.1467 139.307 63.1467H184.262C184.786 63.1467 185.232 63.5259 185.316 64.0422L206.168 191.709L209.97 217.128C210.012 217.405 210.249 217.61 210.529 217.61C210.805 217.61 211.04 217.411 211.087 217.14L237.354 64.0338Z" fill="black"/>
<path d="M462.735 258.637C462.735 259.227 462.257 259.705 461.667 259.705H415.651C415.061 259.705 414.583 259.227 414.583 258.637V162.044V65.4503C414.583 64.8803 415.031 64.4109 415.601 64.384L461.617 62.2155C462.226 62.1868 462.735 62.6725 462.735 63.2818V258.637ZM465.327 21.3798C465.327 35.4114 456.482 42.414 438.827 42.414C429.549 42.414 422.765 40.8096 418.457 37.5654C414.141 34.33 411.991 28.923 411.991 21.3798C411.991 7.11775 420.916 8.26961e-06 438.827 8.26961e-06C456.482 -0.00886173 465.327 7.11775 465.327 21.3798Z" fill="black"/>
<path d="M611.039 159.968C611.039 137.515 608.563 122.358 603.618 114.478C598.665 106.589 590.351 102.644 578.737 102.644C565.046 102.644 555.178 107.854 549.159 118.274C549.066 118.434 549.018 118.617 549.018 118.801V205.681C549.018 205.86 549.063 206.037 549.15 206.194C555.164 217.025 564.699 222.476 577.764 222.476C588.971 222.476 597.312 218.142 602.787 209.508C608.315 200.901 611.039 184.37 611.039 159.968ZM659.501 161.262C659.501 195.166 653.424 220.526 641.254 237.359C629.083 254.2 612.012 262.621 590.05 262.621C573.003 262.621 559.519 257.862 549.667 248.37C549.463 248.174 549.167 248.104 548.898 248.192C548.581 248.296 548.369 248.596 548.378 248.93L549.018 274.596V306.901C549.018 307.491 548.54 307.969 547.95 307.969H502.562C501.972 307.969 501.494 307.491 501.494 306.901V65.4286C501.494 64.8675 501.928 64.4022 502.489 64.3636L533.783 62.2106C534.205 62.1816 534.604 62.4038 534.801 62.7773L542.539 77.4287C542.87 78.0548 543.708 78.191 544.23 77.7125C557.177 65.8479 572.854 59.9115 591.341 59.9115C614.17 59.9115 631.232 67.5167 642.563 82.7272C653.849 97.9555 659.501 124.131 659.501 161.262Z" fill="black"/>
<path d="M724.847 140.382C724.807 140.994 725.295 141.513 725.909 141.513H786.704C787.301 141.513 787.782 141.023 787.768 140.428C787.433 126.114 784.714 115.885 779.554 109.78C774.273 103.531 766.685 100.402 756.769 100.402C745.996 100.402 738.186 103.46 733.339 109.612C728.631 115.617 725.797 125.86 724.847 140.382ZM767.436 263.259C736.214 263.259 713.323 254.696 698.781 237.518C684.231 220.366 676.97 194.076 676.97 158.682C676.97 92.8321 703.478 59.9115 756.433 59.9115C806.213 59.9115 831.094 90.1198 831.094 150.581C831.094 159.611 830.686 167.174 829.93 173.277C829.864 173.808 829.411 174.203 828.876 174.203H726.889C726.279 174.203 725.792 174.717 725.828 175.326C726.799 192.015 730.927 203.784 738.186 210.643C745.633 217.672 757.318 221.173 773.256 221.173C788.967 221.173 804.384 218.305 819.492 212.601C820.14 212.356 820.85 212.776 820.941 213.462L825.827 250.501C825.888 250.958 825.649 251.402 825.232 251.599C808.79 259.381 789.528 263.259 767.436 263.259Z" fill="white"/>
<path d="M724.847 140.382C724.807 140.994 725.295 141.513 725.909 141.513H786.704C787.301 141.513 787.782 141.023 787.768 140.428C787.433 126.114 784.714 115.885 779.554 109.78C774.273 103.531 766.685 100.402 756.769 100.402C745.996 100.402 738.186 103.46 733.339 109.612C728.631 115.617 725.797 125.86 724.847 140.382ZM767.436 263.259C736.214 263.259 713.323 254.696 698.781 237.518C684.231 220.366 676.97 194.076 676.97 158.682C676.97 92.8321 703.478 59.9115 756.433 59.9115C806.213 59.9115 831.094 90.1198 831.094 150.581C831.094 159.611 830.686 167.174 829.93 173.277C829.864 173.808 829.411 174.203 828.876 174.203H726.889C726.279 174.203 725.792 174.717 725.828 175.326C726.799 192.015 730.927 203.784 738.186 210.643C745.633 217.672 757.318 221.173 773.256 221.173C788.967 221.173 804.384 218.305 819.492 212.601C820.14 212.356 820.85 212.776 820.941 213.462L825.827 250.501C825.888 250.958 825.649 251.402 825.232 251.599C808.79 259.381 789.528 263.259 767.436 263.259Z" fill="black"/>
<path d="M137.562 0.0156183H11V40.0937H137.562V0.0156183Z" fill="#FF9831"/>
<path d="M264.124 0.0156183H137.562V40.0937H264.124V0.0156183Z" fill="white"/>
<path d="M390.687 0.0156183H264.125V40.0937H390.687V0.0156183Z" fill="#0B7004"/>
</svg>
