<?xml version="1.0" encoding="utf-8"?>
<!-- Generator: Adobe Illustrator 16.0.0, SVG Export Plug-In . SVG Version: 6.00 Build 0)  -->
<!DOCTYPE svg PUBLIC "-//W3C//DTD SVG 1.1//EN" "http://www.w3.org/Graphics/SVG/1.1/DTD/svg11.dtd">
<svg version="1.1" id="Layer_1" xmlns="http://www.w3.org/2000/svg" xmlns:xlink="http://www.w3.org/1999/xlink" x="0px" y="0px"
	 width="100.917px" height="38px" viewBox="0 0 100.917 38" enable-background="new 0 0 100.917 38" xml:space="preserve">
<g>
	<path fill="#1D1D1F" d="M15.955,24.112c0,5.032-2.705,7.548-8.115,7.548c-2.617,0-4.78-0.503-6.491-1.508l0.566-4.682
		c1.635,1.008,3.573,1.51,5.813,1.51c2.088,0,3.132-0.793,3.132-2.378c0-0.679-0.333-1.238-1-1.68
		c-0.667-0.438-1.472-0.816-2.416-1.132c-0.943-0.314-1.888-0.69-2.831-1.131c-0.943-0.441-1.749-1.146-2.416-2.114
		c-0.667-0.97-1-2.183-1-3.643c0-2.087,0.686-3.767,2.057-5.04c1.372-1.27,3.366-1.906,5.982-1.906c2.063,0,4.014,0.391,5.851,1.169
		l-0.415,4.644c-1.661-0.705-3.473-1.058-5.436-1.058c-1.862,0-2.792,0.655-2.792,1.963c0,0.629,0.327,1.151,0.981,1.565
		c0.654,0.417,1.447,0.774,2.378,1.077s1.861,0.674,2.793,1.112c0.931,0.441,1.724,1.14,2.378,2.095
		C15.628,21.484,15.955,22.678,15.955,24.112z"/>
	<path fill="#1D1D1F" d="M28.939,8.298h5.812l2.757,14.985l0.491,3.019h0.112l0.376-3.019l2.304-14.985h5.396l-4.679,22.91H34.75
		l-2.34-13.889l-0.415-3.057h-0.114l-0.453,3.057l-2.377,13.889h-6.755l-4.982-22.91h5.511l2.453,14.985l0.453,3.019h0.113
		l0.454-3.019L28.939,8.298z"/>
	<path fill="#1D1D1F" d="M55.548,3.43c0,1.636-1.033,2.453-3.096,2.453c-1.083,0-1.875-0.188-2.378-0.566
		C49.57,4.939,49.319,4.31,49.319,3.43c0-1.661,1.043-2.491,3.133-2.491C54.515,0.938,55.548,1.769,55.548,3.43z M55.245,31.208
		h-5.624V8.449l5.624-0.265V31.208z"/>
	<path fill="#1D1D1F" d="M78.229,19.735c0,3.95-0.71,6.907-2.132,8.868c-1.421,1.963-3.415,2.945-5.98,2.945
		c-2.014,0-3.601-0.567-4.756-1.699l-0.114,0.038l0.076,3.057v3.889h-5.549V8.449l3.85-0.265l1.02,1.925
		c1.535-1.458,3.407-2.188,5.623-2.188c2.666,0,4.661,0.887,5.983,2.659C77.569,12.356,78.229,15.406,78.229,19.735z M72.568,19.583
		c0-2.616-0.288-4.384-0.867-5.302c-0.579-0.919-1.549-1.379-2.907-1.379c-1.61,0-2.769,0.617-3.471,1.851v10.19
		c0.702,1.282,1.822,1.926,3.359,1.926c1.308,0,2.282-0.505,2.923-1.511C72.249,24.353,72.568,22.428,72.568,19.583z"/>
	<path fill="#1D1D1F" d="M90.836,31.622c-3.647,0-6.321-0.998-8.02-3c-1.699-1.999-2.547-5.063-2.547-9.189
		c0-7.674,3.095-11.511,9.282-11.511c5.814,0,8.721,3.521,8.721,10.567c0,1.107-0.053,2.025-0.152,2.754H85.969
		c0.1,2.014,0.584,3.429,1.451,4.246c0.869,0.819,2.234,1.228,4.096,1.228c1.887,0,3.735-0.353,5.549-1.056l0.603,4.564
		C95.73,31.157,93.452,31.622,90.836,31.622z M85.854,17.432h7.359c-0.025-1.734-0.345-2.969-0.962-3.698s-1.504-1.094-2.662-1.094
		c-1.258,0-2.17,0.357-2.735,1.075C86.288,14.432,85.954,15.67,85.854,17.432z"/>
</g>
</svg>
