<?xml version="1.0" encoding="UTF-8"?><svg id="Layer_1" xmlns="http://www.w3.org/2000/svg" xmlns:xlink="http://www.w3.org/1999/xlink" viewBox="0 0 903 588"><defs><style>.cls-1{fill:#000;stroke-width:0px;}.cls-2{isolation:isolate;}</style></defs><path class="cls-1" d="M236.29,283.67c0,6.58-.86,12.61-2.57,18.1-1.72,5.49-4.42,10.17-8.13,14.05s-8.46,6.87-14.26,9c-5.82,2.12-12.75,3.18-20.8,3.18-7.26,0-14.1-.77-20.51-2.31-6.41-1.53-12.12-3.84-17.14-6.91l3.17-28.08c5.02,3.22,10.7,5.59,17.04,7.12,6.34,1.53,12.08,2.31,17.24,2.31,6.21,0,10.66-1.24,13.37-3.73,2.7-2.48,4.06-5.7,4.06-9.66,0-3.51-1.38-6.25-4.16-8.23s-6.21-3.73-10.31-5.26-8.56-3.14-13.37-4.83c-4.83-1.69-9.28-3.98-13.37-6.91-4.09-2.93-7.53-6.76-10.31-11.52-2.78-4.75-4.16-11-4.16-18.76,0-6,.93-11.52,2.78-16.57s4.65-9.36,8.42-12.94,8.48-6.4,14.17-8.44c5.68-2.04,12.41-3.07,20.21-3.07,6.07,0,12.02.62,17.84,1.86,5.81,1.24,11.23,3.04,16.25,5.38l-2.57,27.87c-5.02-2.33-10.5-4.06-16.44-5.16s-11.17-1.65-15.66-1.65c-5.02,0-8.89,1.03-11.59,3.07-2.71,2.05-4.06,4.75-4.06,8.11s1.36,5.96,4.06,7.78,6.11,3.47,10.21,4.93c4.09,1.46,8.48,3,13.17,4.6,4.69,1.61,9.08,3.84,13.17,6.69s7.49,6.66,10.21,11.41c2.7,4.75,4.06,10.94,4.06,18.53v.03Z"/><path class="cls-1" d="M345.27,192.4l16.05,87.11,2.97,17.33h.6l2.38-17.55,13.48-86.88h30.12l-26.95,132.96h-37.65l-13.48-79.43-2.57-17.77h-.6l-2.78,17.77-14.07,79.43h-37.65l-28.73-132.96h30.91l14.47,86.66,2.78,17.56h.6l2.57-17.56,15.45-86.66h32.11Z"/><path class="cls-1" d="M465.95,163.66c0,4.83-1.38,8.44-4.16,10.86-2.78,2.41-7.2,3.63-13.27,3.63s-10.37-1.06-13.27-3.18-4.36-5.88-4.36-11.3c0-9.8,5.88-14.71,17.63-14.71,6.07,0,10.5,1.24,13.27,3.73s4.16,6.15,4.16,10.97h0ZM432.65,325.35v-132.08l31.5-1.53v133.61h-31.5Z"/><path class="cls-1" d="M598.11,258.65c0,11.7-1.13,21.87-3.37,30.5-2.24,8.63-5.39,15.8-9.41,21.5-4.03,5.7-8.91,9.95-14.67,12.73-5.74,2.78-12.12,4.17-19.12,4.17-5.41,0-10.47-.74-15.16-2.19-4.69-1.46-8.95-4.31-12.78-8.56l-.6.22.39,17.77v24.35h-31.11v-165.86l21.6-1.53,5.95,11.63c4.22-4.23,9.12-7.53,14.67-9.88,5.55-2.33,11.5-3.51,17.84-3.51,7.39,0,13.93,1.2,19.61,3.63,5.68,2.41,10.47,6.29,14.36,11.63,3.89,5.34,6.83,12.4,8.82,21.17,1.98,8.77,2.97,19.52,2.97,32.25h0ZM566.2,258.44c0-7.61-.43-13.89-1.29-18.86s-2.18-8.89-3.97-11.74c-1.79-2.85-4.09-4.83-6.93-5.92-2.84-1.1-6.17-1.65-10-1.65-4.49,0-8.49.95-11.99,2.85s-6.38,4.54-8.62,7.9v57.05c1.85,3.22,4.42,5.92,7.73,8.11,3.3,2.19,7.39,3.3,12.28,3.3,3.44,0,6.54-.55,9.32-1.65s5.15-3.14,7.14-6.15c1.98-2.99,3.54-7.16,4.65-12.5s1.69-12.25,1.69-20.73h0Z"/><path class="cls-1" d="M671.62,327.77c-20.74,0-35.9-5.96-45.47-17.88-9.58-11.92-14.36-29.51-14.36-52.76,0-21.21,4.29-37.7,12.88-49.48,8.58-11.78,21.92-17.66,40.02-17.66,15.33,0,27.41,5.05,36.26,15.14s13.27,25.67,13.27,46.73c0,2.48-.06,5.2-.2,8.11-.14,2.93-.33,5.57-.6,7.9h-69.94c.79,11.12,3.73,18.98,8.82,23.58,5.08,4.6,12.78,6.91,23.09,6.91,11.09,0,21.79-2.19,32.1-6.58l3.37,27.42c-5.02,2.48-10.9,4.54-17.63,6.15s-13.95,2.41-21.6,2.41h0ZM686.08,245.28c-.27-9.8-2.24-16.75-5.95-20.84s-8.79-6.15-15.26-6.15c-7.4,0-12.75,2.08-16.05,6.25-3.31,4.17-5.29,11.08-5.95,20.73h43.21Z"/><path class="cls-1" d="M131.38,396.99c0,2.84-.93,5.06-2.78,6.67-1.85,1.61-4.45,2.41-7.8,2.41-1.67,0-3.25-.19-4.73-.57-1.48-.38-2.84-.9-4.08-1.56l.84-5.51c1.27.66,2.55,1.17,3.84,1.53,1.29.37,2.65.55,4.07.55,1.57,0,2.71-.27,3.42-.81.71-.55,1.06-1.31,1.06-2.29,0-.74-.32-1.33-.96-1.79-.65-.46-1.46-.86-2.43-1.23s-2.03-.75-3.16-1.14-2.18-.91-3.16-1.57-1.79-1.48-2.43-2.48c-.65-1-.96-2.29-.96-3.89,0-1.22.2-2.35.61-3.4.41-1.05,1.03-1.98,1.86-2.78s1.9-1.42,3.21-1.88,2.85-.68,4.65-.68c1.39,0,2.79.13,4.2.39s2.66.62,3.78,1.08l-.8,5.4c-1.19-.38-2.36-.67-3.51-.89s-2.27-.32-3.36-.32c-.89,0-1.61.08-2.18.22-.57.14-1.03.33-1.37.58-.34.25-.58.55-.72.87s-.2.68-.2,1.06c0,.74.32,1.32.96,1.76s1.46.84,2.43,1.19,2.03.72,3.16,1.1,2.18.89,3.16,1.53c.98.65,1.79,1.48,2.43,2.51s.96,2.33.96,3.93h-.01Z"/><path class="cls-1" d="M141.91,377.53c0,.84-.27,1.46-.8,1.88-.53.42-1.38.63-2.55.63s-1.99-.19-2.55-.56-.84-1.01-.84-1.95c0-1.7,1.13-2.55,3.38-2.55,1.17,0,2.02.22,2.55.65s.8,1.06.8,1.9ZM135.52,405.54v-22.87l6.05-.27v23.14h-6.05Z"/><path class="cls-1" d="M172.42,405.54v-14.71c0-1.22-.3-2.1-.91-2.67-.61-.57-1.46-.85-2.55-.85-.99,0-1.8.27-2.43.81-.63.55-.95,1.38-.95,2.52v14.9h-5.9v-14.9c0-1.19-.3-2.04-.89-2.56-.6-.52-1.41-.79-2.45-.79-.71,0-1.37.15-1.99.48-.62.32-1.1.74-1.46,1.27v16.49h-5.93v-22.87l4.26-.3.95,2.17c.81-.76,1.72-1.36,2.74-1.79,1.01-.43,2.05-.65,3.12-.65,2.87,0,4.89,1.03,6.09,3.08.79-1.06,1.72-1.84,2.83-2.33,1.1-.49,2.31-.74,3.63-.74,1.14,0,2.18.18,3.13.53s1.76.89,2.45,1.61c.68.72,1.22,1.62,1.6,2.7s.57,2.33.57,3.78v14.82h-5.9,0Z"/><path class="cls-1" d="M203.09,393.99c0,2.03-.22,3.79-.65,5.29-.43,1.5-1.03,2.74-1.8,3.73-.77.99-1.71,1.72-2.81,2.21s-2.32.72-3.66.72c-1.04,0-2-.13-2.9-.38-.9-.25-1.71-.75-2.45-1.48l-.11.04.08,3.08v4.22h-5.97v-28.73l4.15-.27,1.14,2.02c.81-.74,1.75-1.31,2.81-1.71s2.21-.61,3.42-.61c1.42,0,2.67.22,3.77.63,1.09.42,2,1.09,2.75,2.02.75.93,1.31,2.14,1.69,3.66s.57,3.38.57,5.59v-.03ZM196.97,393.95c0-1.32-.09-2.41-.24-3.27-.16-.86-.42-1.53-.76-2.03-.34-.49-.79-.84-1.33-1.03s-1.18-.28-1.91-.28c-.86,0-1.62.16-2.29.49s-1.22.79-1.65,1.37v9.88c.35.56.85,1.03,1.48,1.41s1.42.57,2.36.57c.66,0,1.26-.1,1.79-.28.53-.19.99-.55,1.37-1.06s.67-1.24.89-2.17c.22-.93.32-2.12.32-3.59h-.01Z"/><path class="cls-1" d="M207.2,405.54v-29.6l5.97-.27v29.87h-5.97Z"/><path class="cls-1" d="M228.77,405.96c-3.98,0-6.88-1.03-8.72-3.09s-2.75-5.11-2.75-9.14c0-3.68.82-6.53,2.47-8.57,1.65-2.04,4.21-3.06,7.68-3.06,2.94,0,5.26.87,6.96,2.62s2.55,4.45,2.55,8.09c0,.43-.01.9-.04,1.41s-.06.96-.11,1.37h-13.41c.15,1.93.71,3.28,1.69,4.08s2.45,1.19,4.42,1.19c2.13,0,4.18-.38,6.16-1.14l.65,4.75c-.96.43-2.09.79-3.38,1.06s-2.67.42-4.15.42h-.01ZM231.55,391.67c-.05-1.7-.43-2.9-1.14-3.61s-1.69-1.06-2.93-1.06c-1.42,0-2.45.35-3.08,1.08s-1.01,1.91-1.14,3.59h8.29Z"/><path class="cls-1" d="M272.97,397.25c0,1.29-.2,2.45-.58,3.46-.39,1.01-1,1.88-1.83,2.6-.82.72-1.88,1.27-3.16,1.65-1.28.38-2.81.57-4.61.57h-11.74v-28.5h11.59c3.12,0,5.45.65,7,1.94s2.32,3.08,2.32,5.36c0,1.6-.34,2.89-1.04,3.89-.7,1-1.61,1.75-2.75,2.22v.08c3.22.89,4.83,3.13,4.83,6.73h-.03ZM266.55,396.75c0-1.22-.29-2.08-.87-2.6-.58-.52-1.57-.77-2.97-.77h-5.51v6.92h5.67c1.29,0,2.23-.24,2.81-.74.58-.49.87-1.42.87-2.79v-.03ZM265.83,385.47c0-1.14-.27-1.93-.8-2.37s-1.41-.67-2.62-.67h-5.17v6.2h5.32c1.14,0,1.97-.24,2.48-.72s.77-1.29.77-2.43h.01Z"/><path class="cls-1" d="M284.04,377.53c0,.84-.27,1.46-.8,1.88-.53.42-1.38.63-2.55.63s-1.99-.19-2.55-.56-.84-1.01-.84-1.95c0-1.7,1.13-2.55,3.38-2.55,1.17,0,2.02.22,2.55.65s.8,1.06.8,1.9ZM277.65,405.54v-22.87l6.05-.27v23.14h-6.05Z"/><path class="cls-1" d="M289.54,405.54v-29.6l5.97-.27v29.87h-5.97Z"/><path class="cls-1" d="M301.14,405.54v-29.6l5.97-.27v29.87h-5.97Z"/><path class="cls-1" d="M319.33,377.53c0,.84-.27,1.46-.8,1.88-.53.42-1.38.63-2.55.63s-1.99-.19-2.55-.56-.84-1.01-.84-1.95c0-1.7,1.13-2.55,3.38-2.55,1.17,0,2.02.22,2.55.65s.8,1.06.8,1.9ZM312.95,405.54v-22.87l6.05-.27v23.14h-6.05Z"/><path class="cls-1" d="M337.91,405.54v-14.67c0-1.29-.32-2.21-.95-2.75-.63-.55-1.56-.81-2.78-.81-.74,0-1.46.15-2.18.46s-1.28.74-1.69,1.29v16.49h-5.93v-22.92l4.26-.27.87,1.98c.86-.74,1.83-1.29,2.9-1.69s2.22-.58,3.44-.58c2.46,0,4.4.75,5.82,2.24s2.13,3.69,2.13,6.58v14.67h-5.9v-.03Z"/><path class="cls-1" d="M356.8,396.26c-1.01,0-1.98-.08-2.89-.23-.53.28-.8.65-.8,1.1,0,.63.51.99,1.52,1.06l5.48.3c2.69.15,4.6.72,5.74,1.71s1.71,2.37,1.71,4.15c0,1.14-.19,2.17-.58,3.09s-1.01,1.71-1.88,2.36c-.86.65-1.95,1.14-3.28,1.48-1.33.34-2.93.52-4.8.52-1.65,0-3.06-.15-4.23-.46s-2.14-.72-2.9-1.27-1.32-1.18-1.67-1.91c-.35-.74-.53-1.55-.53-2.43,0-.68.15-1.34.46-1.99s.75-1.22,1.33-1.72c-.51-.35-.93-.81-1.26-1.37-.33-.56-.49-1.23-.49-2.02s.22-1.5.66-2.21c.44-.71,1.14-1.29,2.1-1.75-.76-.56-1.37-1.27-1.83-2.14-.46-.87-.68-1.97-.68-3.28,0-1.04.15-1.99.47-2.87s.82-1.62,1.53-2.26,1.62-1.13,2.74-1.48,2.47-.53,4.07-.53c.99,0,1.99.09,3,.27s1.93.51,2.74.99l3.92-1.26,1.22,2.81-2.43,1.9c.23.68.34,1.5.34,2.43,0,2.23-.67,3.96-2.03,5.19s-3.59,1.84-6.71,1.84l-.03-.04ZM353.61,403.1c-.63.58-.95,1.2-.95,1.86,0,.81.32,1.41.96,1.8.65.39,1.72.58,3.25.58,1.09,0,1.98-.05,2.67-.15s1.24-.25,1.65-.43c.41-.19.68-.42.84-.67s.23-.55.23-.87c0-.53-.22-.93-.62-1.19-.42-.27-1.27-.46-2.56-.56l-5.48-.38h.01ZM356.84,386.53c-1.14,0-1.94.23-2.4.67-.46.44-.68,1.17-.68,2.18,0,1.12.27,1.86.8,2.24s1.24.57,2.13.57c1.24,0,2.08-.22,2.52-.62.44-.42.66-1.17.66-2.22s-.24-1.8-.7-2.21c-.47-.41-1.24-.61-2.33-.61h0Z"/><path class="cls-1" d="M403.28,405.88c-.96-.43-1.95-.94-2.98-1.52-1.03-.58-2.04-1.23-3.06-1.94-1.22,1.06-2.57,1.94-4.08,2.62s-3.21,1.03-5.11,1.03c-1.57,0-2.9-.23-3.99-.68-1.09-.46-1.98-1.05-2.66-1.8-.68-.75-1.18-1.6-1.48-2.56-.3-.96-.46-1.95-.46-2.97,0-.94.13-1.81.39-2.62s.62-1.56,1.08-2.24c.46-.68.99-1.31,1.6-1.88s1.24-1.1,1.9-1.61c-.74-1.14-1.31-2.23-1.72-3.28s-.62-2-.62-2.87c0-.94.14-1.83.42-2.67.28-.85.74-1.58,1.38-2.22s1.5-1.13,2.55-1.5c1.05-.37,2.33-.55,3.85-.55,1.17,0,2.23.14,3.19.42.96.28,1.79.67,2.48,1.18s1.24,1.12,1.64,1.83.58,1.51.58,2.4-.19,1.7-.57,2.45c-.38.75-.87,1.45-1.5,2.09-.62.65-1.32,1.26-2.1,1.84-.79.58-1.58,1.15-2.4,1.71.74.79,1.52,1.57,2.36,2.36.84.79,1.74,1.56,2.7,2.32.43-.79.8-1.58,1.12-2.41s.57-1.62.77-2.41h5.06c-.13,1.04-.42,2.24-.89,3.61-.47,1.37-1.12,2.75-1.95,4.15.76.48,1.52.93,2.28,1.33.76.41,1.53.77,2.32,1.1l-2.09,5.36v-.06ZM388.99,400.56c.76,0,1.48-.11,2.17-.37.68-.24,1.33-.57,1.94-1-2.05-1.75-3.93-3.59-5.63-5.51-.58.58-1.04,1.18-1.38,1.8-.34.62-.51,1.29-.51,2.03,0,1.01.3,1.77.91,2.28s1.45.76,2.51.76h-.01ZM387.59,383.53c0,.43.1.93.32,1.48s.51,1.15.89,1.79c.99-.63,1.81-1.26,2.47-1.86.66-.61.99-1.28.99-2.02,0-.63-.2-1.1-.61-1.41s-.91-.46-1.52-.46c-.76,0-1.37.22-1.84.63-.47.42-.7,1.03-.7,1.84h0Z"/><path class="cls-1" d="M439.84,386.8c0,1.5-.22,2.83-.62,4.01-.42,1.18-1.06,2.17-1.95,2.98s-2.04,1.42-3.46,1.84c-1.42.42-3.12.62-5.1.62h-3.8v9.27h-6.43v-28.5h10.22c3.96,0,6.8.8,8.53,2.4,1.74,1.6,2.6,4.06,2.6,7.38h.01ZM433.23,386.76c0-.86-.08-1.57-.24-2.13s-.42-1-.77-1.33c-.35-.33-.81-.56-1.38-.7-.57-.14-1.27-.2-2.1-.2h-3.8v8.73h3.8c.79,0,1.46-.06,2.03-.18s1.04-.33,1.41-.66c.37-.33.63-.77.81-1.34s.27-1.29.27-2.18h-.01Z"/><path class="cls-1" d="M455.23,403.33l-.11-.04c-.71.84-1.6,1.48-2.66,1.94s-2.26.68-3.58.68c-2.18,0-3.92-.63-5.21-1.88-1.29-1.26-1.94-3.17-1.94-5.76,0-1.06.19-2.04.55-2.93s.9-1.64,1.6-2.26c.7-.62,1.55-1.1,2.56-1.46s2.18-.53,3.5-.53c.86,0,1.66.05,2.4.16s1.41.27,2.02.48v-1.33c0-1.17-.33-2.02-.99-2.56s-1.79-.81-3.38-.81c-1.27,0-2.37.1-3.32.3s-1.95.52-3.02.95l-.49-4.72c1.17-.51,2.4-.89,3.7-1.14,1.31-.25,2.7-.38,4.2-.38,1.7,0,3.13.19,4.3.55,1.17.37,2.1.94,2.83,1.69.72.76,1.24,1.72,1.56,2.89s.48,2.54.48,4.11v14.25h-4.53l-.46-2.21h.01ZM454.36,395.66c-.28-.13-.7-.24-1.26-.34s-1.23-.15-2.02-.15c-2.56,0-3.84,1.01-3.84,3.04,0,1.14.3,1.93.91,2.37s1.39.66,2.36.66c.51,0,.99-.06,1.45-.2.46-.14.86-.33,1.22-.58.35-.25.63-.53.85-.85s.32-.66.32-1.04v-2.89h.01Z"/><path class="cls-1" d="M469.22,407.52c.81,0,1.51-.15,2.09-.43s1.06-.87,1.45-1.76l.11-.3-9.91-22.5h6.73l5.02,14.06.99,2.89h.11l.72-2.97,3.77-13.98h6.28l-7.87,22.72c-.81,2.38-1.91,4.09-3.32,5.13s-3.09,1.56-5.07,1.56c-.71,0-1.39-.05-2.05-.16s-1.28-.3-1.86-.55l.46-4.18c.81.33,1.61.49,2.4.49h-.03Z"/><path class="cls-1" d="M514.97,405.54v-14.71c0-1.22-.3-2.1-.91-2.67s-1.46-.85-2.55-.85c-.99,0-1.8.27-2.43.81-.63.55-.95,1.38-.95,2.52v14.9h-5.9v-14.9c0-1.19-.3-2.04-.89-2.56-.6-.52-1.41-.79-2.45-.79-.71,0-1.37.15-1.99.48-.62.32-1.1.74-1.46,1.27v16.49h-5.93v-22.87l4.26-.3.95,2.17c.81-.76,1.72-1.36,2.74-1.79s2.05-.65,3.12-.65c2.87,0,4.89,1.03,6.09,3.08.79-1.06,1.72-1.84,2.83-2.33,1.1-.49,2.31-.74,3.63-.74,1.14,0,2.18.18,3.13.53s1.76.89,2.45,1.61c.68.72,1.22,1.62,1.6,2.7s.57,2.33.57,3.78v14.82h-5.9,0Z"/><path class="cls-1" d="M535.79,405.96c-3.98,0-6.88-1.03-8.72-3.09s-2.75-5.11-2.75-9.14c0-3.68.82-6.53,2.47-8.57,1.65-2.04,4.21-3.06,7.67-3.06,2.94,0,5.26.87,6.96,2.62s2.55,4.45,2.55,8.09c0,.43-.01.9-.04,1.41s-.06.96-.11,1.37h-13.41c.15,1.93.71,3.28,1.69,4.08s2.45,1.19,4.42,1.19c2.13,0,4.18-.38,6.16-1.14l.65,4.75c-.96.43-2.09.79-3.38,1.06s-2.67.42-4.15.42h0ZM538.56,391.67c-.05-1.7-.43-2.9-1.14-3.61s-1.69-1.06-2.93-1.06c-1.42,0-2.45.35-3.08,1.08s-1.01,1.91-1.14,3.59h8.29Z"/><path class="cls-1" d="M561.14,405.54v-14.67c0-1.29-.32-2.21-.95-2.75-.63-.55-1.56-.81-2.78-.81-.74,0-1.46.15-2.18.46-.72.3-1.28.74-1.69,1.29v16.49h-5.93v-22.92l4.26-.27.87,1.98c.86-.74,1.83-1.29,2.9-1.69s2.22-.58,3.44-.58c2.46,0,4.4.75,5.82,2.24,1.42,1.5,2.13,3.69,2.13,6.58v14.67h-5.9v-.03Z"/><path class="cls-1" d="M578.47,386.91v11.78c0,.89.23,1.53.68,1.94s1.14.61,2.05.61c.3,0,.63-.03.99-.08s.63-.11.84-.19l.34,4.3c-.41.18-.96.33-1.67.46-.71.13-1.47.19-2.28.19-2.31,0-4.02-.62-5.15-1.86s-1.69-2.97-1.69-5.17v-11.97h-2.59v-4.41h2.85l.99-5.21,4.64-.42v5.63h5.13v4.41h-5.15Z"/><path class="cls-1" d="M602.14,398.31c0,1.14-.16,2.18-.49,3.13s-.85,1.76-1.56,2.43-1.62,1.19-2.74,1.56c-1.12.37-2.45.55-3.99.55-1.39,0-2.7-.13-3.93-.39s-2.32-.66-3.28-1.19l.61-4.87c.96.56,2.05.96,3.27,1.23s2.32.39,3.31.39c1.19,0,2.04-.22,2.56-.65.52-.43.77-.99.77-1.67,0-.61-.27-1.08-.8-1.42s-1.19-.65-1.98-.91-1.64-.55-2.56-.84-1.77-.68-2.56-1.19-1.45-1.17-1.98-1.99-.8-1.9-.8-3.25c0-1.04.18-1.99.53-2.87.36-.87.89-1.62,1.61-2.24s1.62-1.1,2.71-1.46,2.38-.53,3.88-.53c1.17,0,2.31.1,3.42.32s2.16.53,3.12.93l-.49,4.83c-.96-.41-2.02-.7-3.16-.89-1.14-.19-2.14-.29-3-.29-.96,0-1.7.18-2.22.53s-.77.82-.77,1.41.25,1.03.77,1.34,1.17.6,1.95.85,1.62.52,2.52.8c.9.28,1.74.66,2.52,1.15s1.43,1.15,1.95,1.98.77,1.89.77,3.21h.03Z"/><path class="cls-1" d="M632.39,399.98h-10.33l-1.6,5.55h-6.77l9.84-28.5h7.64l9.95,28.5h-7.15l-1.6-5.55h.01ZM626.47,384.86l-2.85,9.76h7.25l-2.74-9.76-.76-3h-.11l-.8,3h.01Z"/><path class="cls-1" d="M664.01,393.99c0,2.03-.22,3.79-.65,5.29-.43,1.5-1.03,2.74-1.8,3.73s-1.71,1.72-2.81,2.21-2.32.72-3.66.72c-1.04,0-2-.13-2.9-.38-.9-.25-1.71-.75-2.45-1.48l-.11.04.08,3.08v4.22h-5.97v-28.73l4.15-.27,1.14,2.02c.81-.74,1.75-1.31,2.81-1.71,1.06-.41,2.21-.61,3.42-.61,1.42,0,2.67.22,3.77.63s2,1.09,2.75,2.02c.75.93,1.31,2.14,1.69,3.66s.57,3.38.57,5.59v-.03ZM657.89,393.95c0-1.32-.08-2.41-.24-3.27s-.42-1.53-.76-2.03-.79-.84-1.33-1.03-1.18-.28-1.91-.28c-.86,0-1.64.16-2.29.49s-1.22.79-1.65,1.37v9.88c.36.56.85,1.03,1.48,1.41s1.42.57,2.36.57c.66,0,1.26-.1,1.79-.28.53-.19.99-.55,1.37-1.06s.67-1.24.89-2.17.32-2.12.32-3.59h-.01Z"/><path class="cls-1" d="M687.94,393.99c0,2.03-.22,3.79-.65,5.29-.43,1.5-1.03,2.74-1.8,3.73s-1.71,1.72-2.81,2.21-2.32.72-3.66.72c-1.04,0-2-.13-2.9-.38-.9-.25-1.71-.75-2.45-1.48l-.11.04.08,3.08v4.22h-5.97v-28.73l4.15-.27,1.14,2.02c.81-.74,1.75-1.31,2.81-1.71,1.06-.41,2.21-.61,3.42-.61,1.42,0,2.67.22,3.77.63s2,1.09,2.75,2.02c.75.93,1.31,2.14,1.69,3.66s.57,3.38.57,5.59v-.03ZM681.83,393.95c0-1.32-.08-2.41-.24-3.27s-.42-1.53-.76-2.03-.79-.84-1.33-1.03-1.18-.28-1.91-.28c-.86,0-1.64.16-2.29.49s-1.22.79-1.65,1.37v9.88c.36.56.85,1.03,1.48,1.41s1.42.57,2.36.57c.66,0,1.26-.1,1.79-.28.53-.19.99-.55,1.37-1.06s.67-1.24.89-2.17.32-2.12.32-3.59h-.01Z"/><image class="cls-2" width="774" height="774" transform="translate(692.88 340.91) scale(.13)" xlink:href="../../Downloads/flag 2.png"/></svg>